HIERARCHY
ROOT hip
{
	OFFSET 0.000000 0.000000 0.000000 
	CHANNELS 6 Xposition Yposition Zposition Xrotation Zrotation Yrotation
	JOINT abdomen
	{
		OFFSET 0.000000 3.402643 0.000000 
		CHANNELS 3 Xrotation Zrotation Yrotation
		JOINT chest
		{
			OFFSET 0.000000 8.438565 -0.680529 
			CHANNELS 3 Xrotation Zrotation Yrotation
			JOINT neck
			{
				OFFSET 0.000000 10.207942 -0.272212 
				CHANNELS 3 Xrotation Zrotation Yrotation
				JOINT head
				{
					OFFSET 0.000000 3.130431 0.000000 
					CHANNELS 3 Xrotation Zrotation Yrotation
					End Site
					{
						OFFSET 0.000000 3.130435 0.000000 
					}
				}
			}
			JOINT lCollar
			{
				OFFSET 3.470700 6.669187 -0.816635 
				CHANNELS 3 Yrotation Zrotation Xrotation
				JOINT lShldr
				{
					OFFSET 3.198488 0.000000 0.000000 
					CHANNELS 3 Zrotation Yrotation Xrotation
					JOINT lForeArm
					{
						OFFSET 10.139888 0.000000 0.000000 
						CHANNELS 3 Yrotation Zrotation Xrotation
						JOINT lHand
						{
							OFFSET 8.370511 0.000000 0.000000 
							CHANNELS 3 Zrotation Yrotation Xrotation
							End Site
							{
								OFFSET 4.083176 0.000000 0.000000 
							}
						}
					}
				}
			}
			JOINT rCollar
			{
				OFFSET -3.470700 6.669187 -0.816635 
				CHANNELS 3 Yrotation Zrotation Xrotation
				JOINT rShldr
				{
					OFFSET -3.198488 0.000000 0.000000 
					CHANNELS 3 Zrotation Yrotation Xrotation
					JOINT rForeArm
					{
						OFFSET -10.139888 0.000000 0.000000 
						CHANNELS 3 Yrotation Zrotation Xrotation
						JOINT rHand
						{
							OFFSET -8.370511 0.000000 0.000000 
							CHANNELS 3 Zrotation Yrotation Xrotation
							End Site
							{
								OFFSET -4.083176 0.000000 0.000000 
							}
						}
					}
				}
			}
		}
	}
	JOINT lThigh
	{
		OFFSET 5.308129 -1.633274 1.361059 
		CHANNELS 3 Xrotation Zrotation Yrotation
		JOINT lShin
		{
			OFFSET -2.041588 -20.007561 0.000000 
			CHANNELS 3 Xrotation Zrotation Yrotation
			JOINT lFoot
			{
				OFFSET 0.000000 -19.190928 -1.224953 
				CHANNELS 3 Xrotation Yrotation Zrotation
				End Site
				{
					OFFSET 0.000000 -2.449906 4.627600 
				}
			}
		}
	}
	JOINT rThigh
	{
		OFFSET -5.308129 -1.633274 1.361059 
		CHANNELS 3 Xrotation Zrotation Yrotation
		JOINT rShin
		{
			OFFSET 2.041588 -20.007561 0.000000 
			CHANNELS 3 Xrotation Zrotation Yrotation
			JOINT rFoot
			{
				OFFSET 0.000000 -19.190928 -1.224953 
				CHANNELS 3 Xrotation Yrotation Zrotation
				End Site
				{
					OFFSET 0.000000 -2.449906 4.627600 
				}
			}
		}
	}
}
MOTION
Frames: 12
Frame Time: 0.033333
2.517439 50.381329 1.064867 0.927456 -2.499058 1.573751 0.000000 0.000000 0.000000 -2.634971 -0.732420 -0.136832 2.328334 -1.005851 -0.234510 6.441895 4.647542 -1.126475 -0.298558 -5.227660 -1.774449 -75.045143 19.668638 -9.276376 -37.504002 -2.192832 21.651604 -10.462812 2.650943 -3.414048 1.337346 7.499905 -1.861366 68.440613 -18.941570 2.650236 30.383301 1.015939 3.596942 8.561051 -3.680602 -3.538224 0.019181 6.747046 4.096975 11.021346 -2.372972 14.532179 -10.848568 0.504355 -4.919826 5.105798 -8.924198 -7.983256 1.355212 2.822433 -7.288293 -2.631228 -0.261992 9.889817 
2.771969 50.375549 0.967453 0.375030 -2.860603 1.290380 0.000000 0.000000 0.000000 -1.937102 -0.664053 0.302714 2.518807 -0.849609 0.048823 5.918668 4.012926 -1.105594 -0.021847 -5.000561 -1.146741 -77.533447 20.681278 -6.824267 -37.952621 -2.516382 25.239201 -12.180700 2.282118 -3.375758 1.159087 8.307956 -1.194434 69.432388 -19.348457 3.960053 31.190598 1.112022 6.292881 6.737084 -2.352190 -3.430781 0.028880 6.905887 4.353519 11.949763 -2.480898 14.475554 -11.292943 0.445756 -4.661435 4.379774 -9.074525 -7.972044 3.445928 2.858612 -6.295830 -2.122629 -0.211374 10.262261 
2.992857 50.369370 0.841981 -0.065900 -3.436668 1.261598 0.000000 0.000000 0.000000 -1.389380 -0.400382 0.380850 2.857893 -0.839837 0.234350 5.741884 3.485831 -0.968571 0.232335 -5.295968 -0.656905 -78.098289 22.030685 -3.329490 -38.661873 -4.066463 23.611555 -8.462484 4.206892 -3.557155 1.120269 8.698197 -0.691859 70.026634 -20.025127 5.041406 32.303448 1.261513 7.814853 7.218847 -1.908206 -3.379468 -0.263844 7.300361 4.499306 13.090257 -2.343392 13.960129 -11.783633 0.476732 -4.554052 2.675056 -9.129650 -7.985245 7.228584 3.070207 -5.682710 -2.288550 -0.230369 10.491278 
3.142546 50.372910 0.687138 -0.325324 -3.778204 1.379751 0.000000 0.000000 0.000000 -1.123127 -0.468750 0.009765 3.529490 -0.898420 0.361284 5.602362 2.695282 -0.273594 -0.021279 -4.433554 -0.401457 -80.076195 23.386034 -3.096304 -38.493839 -5.252125 15.068254 -2.693206 7.761738 -3.645533 1.548919 7.526138 -0.492859 71.719376 -20.012310 4.760566 31.031128 1.046731 8.991471 10.216111 -3.449366 -3.521906 -0.468825 7.459715 4.490544 13.658000 -2.227086 13.411227 -12.000325 0.462650 -4.357060 -0.059208 -9.314582 -7.844568 12.726613 3.110991 -5.208680 -2.660964 -0.275193 10.790698 
3.237597 50.381348 0.522183 -0.509023 -3.855895 1.614903 0.000000 0.000000 0.000000 -0.694212 -0.624999 0.078120 3.560049 -1.298751 0.625061 6.233489 2.636710 -0.146329 -0.030986 -4.941396 -0.019459 -79.246880 23.752218 -2.947286 -38.866066 -5.794156 11.818157 -2.099634 9.938154 -3.730189 1.455661 6.716526 -0.089544 71.250916 -19.251478 5.737217 30.066944 1.308592 9.145195 13.288829 -5.088409 -3.725401 -0.654308 7.449393 4.480832 13.849991 -2.235508 13.271781 -11.923124 0.461362 -4.161154 -3.026062 -9.581898 -7.962130 18.238169 3.094629 -5.592338 -2.427066 -0.250681 11.108272 
3.245909 50.404388 0.355078 -0.997556 -4.245474 1.997563 0.000000 0.000000 0.000000 0.034934 -0.605455 0.390603 3.461861 -1.630676 0.859583 7.039268 3.368998 -0.528154 -0.037535 -5.410905 0.638383 -76.398636 22.864885 -1.701624 -38.887554 -5.682549 17.018217 -7.942475 9.535267 -4.002972 1.410124 7.114655 0.599395 69.274452 -18.904921 7.123036 30.845282 1.680375 9.052266 13.713134 -5.699884 -3.825641 -0.693388 7.824662 4.798836 14.220031 -2.264267 13.451211 -11.789278 0.440902 -4.072167 -5.145653 -9.431053 -8.218382 22.430637 3.320236 -6.124616 -1.404501 -0.165527 11.064220 
3.202110 50.434452 0.197874 -1.216376 -4.350849 2.643932 0.000000 0.000000 0.000000 0.434456 -0.771468 0.371060 3.681567 -1.913837 0.879394 6.664034 3.554514 -0.567133 -0.323570 -5.582572 0.991129 -72.898216 21.513081 0.570955 -38.261429 -5.745776 23.893303 -13.425622 7.746250 -4.065098 1.700057 6.503294 0.942092 68.570145 -18.569881 7.289994 30.911455 1.587917 9.501410 12.390047 -6.064797 -3.841365 -0.800491 7.903470 4.745752 14.133421 -2.148827 13.283900 -11.450677 0.436596 -3.984033 -7.290685 -9.591913 -8.528564 26.362968 3.495068 -6.051504 -0.111408 -0.037190 10.983839 
3.081079 50.464417 0.082596 -1.439137 -4.775980 3.556990 0.000000 0.000000 0.000000 0.795618 -0.644511 0.458955 3.797929 -1.904058 0.908675 6.079053 3.437219 -0.733446 -0.806225 -5.869077 1.286424 -68.737350 19.486010 3.261914 -37.841202 -6.385534 27.660988 -13.864815 7.060839 -3.998095 1.483417 6.070342 1.305529 67.520638 -17.965929 7.428182 31.100945 1.652924 9.095769 10.450069 -5.671559 -3.759288 -1.054767 8.461114 4.844994 14.378188 -2.040795 12.276781 -11.342127 0.400361 -3.946737 -9.039271 -9.545474 -8.724723 29.730782 3.905089 -4.652281 1.353057 0.128282 10.503460 
2.904557 50.506950 0.010920 -1.849519 -5.285825 4.589521 0.000000 0.000000 0.000000 1.178345 -0.429675 0.439441 3.884320 -1.738143 0.722916 6.235775 3.036798 -0.821230 -1.100592 -6.038984 1.610827 -64.806442 16.967045 4.940922 -36.561321 -6.987909 29.189960 -12.283797 7.839613 -4.031752 1.023110 6.174613 1.659413 65.689796 -17.447563 7.924740 31.831970 1.834489 8.557451 8.919696 -4.999815 -3.657135 -1.025580 9.291114 5.040296 14.489334 -1.817667 10.530063 -11.151363 0.386220 -4.006014 -9.801055 -9.506947 -8.722373 31.961926 4.287025 -1.500101 2.630538 0.193163 9.684402 
2.705289 50.545815 -0.058431 -2.011136 -5.542421 5.336638 0.000000 0.000000 0.000000 1.247352 -0.361318 0.419914 3.922766 -1.786967 0.722914 6.472613 3.202722 -0.909513 -1.065513 -5.990633 1.678811 -61.853409 14.804009 5.163165 -35.733082 -6.894472 31.122480 -9.220189 7.120823 -3.868227 0.844905 5.975478 1.737193 64.262756 -16.698185 8.657819 31.902882 2.002212 8.674221 7.818460 -5.341413 -3.664788 -1.044990 9.816407 5.109398 14.241499 -1.611444 9.581214 -10.818002 0.396191 -4.181831 -10.378779 -9.870373 -8.577248 33.325390 4.481954 2.306891 3.762927 0.244487 8.922043 
2.421756 50.550209 -0.094204 -2.073962 -5.798280 6.007041 0.000000 0.000000 0.000000 1.061996 -0.400383 0.351554 4.139616 -1.650263 0.713157 6.694052 3.280952 -0.772455 -0.423586 -5.619017 1.560513 -59.376610 12.682090 4.838808 -34.927074 -6.647170 32.359417 -5.831871 5.859923 -3.661486 1.288028 6.237873 1.541727 63.135509 -16.516508 8.647224 31.724518 1.923981 9.692016 7.569766 -5.080504 -3.646002 -1.366860 10.385076 5.185774 14.447646 -1.415326 8.753113 -10.704995 0.430847 -4.466782 -10.369411 -10.173573 -8.070638 33.729443 4.404189 6.286089 4.116199 0.328342 8.300862 
2.099913 50.553757 -0.136216 -2.337881 -5.740365 6.840720 0.000000 0.000000 0.000000 1.159426 -0.507805 0.302722 4.277231 -1.669806 0.674111 6.896755 3.456717 -0.772436 -0.269992 -5.195484 1.657729 -57.565845 10.113790 3.872938 -33.845051 -6.393836 31.123348 -3.887017 4.826917 -3.564547 1.490931 6.362803 1.620273 62.258362 -15.790103 8.677838 31.825283 1.850329 10.316486 7.392038 -5.051713 -3.634379 -1.318061 10.862488 5.380764 14.352433 -1.447755 7.408554 -10.460315 0.428161 -4.595035 -9.823565 -10.838757 -7.834984 33.576103 3.945168 7.464399 4.820508 0.407063 9.220086 
